<svg width="124" height="124" viewBox="0 0 124 124" fill="none" xmlns="http://www.w3.org/2000/svg">
<rect width="124" height="124" rx="32" fill="#ECD8D3"/>
<path d="M91.25 53.6874C91 49.3425 89.0714 45.4284 87.9286 43.0943L87.7857 42.8429L87.2857 41.8375L87.3929 42.9507C87.5 44.4948 87.8571 49.8093 86.2857 52.8615C84.3214 56.9192 78.5714 56.5242 76.6786 56.4165H76.5714C73.4643 56.2011 63.3571 55.842 60.25 55.842C56.1786 55.8779 51.6786 56.2011 48.0357 56.4883C46.25 56.632 44.7143 56.7397 43.6786 56.7756C43.5714 56.7756 43.4643 56.8115 43.2857 56.8115C38.2143 57.2783 35 55.7701 33.75 52.3229C33 50.2043 33 46.0029 33 43.992V42.5557L32.6071 43.2739C30.7836 46.5361 29.6527 50.1431 29.2857 53.867C28.9286 60.3306 32.2857 62.6647 34.8214 63.8137C37.5 65.0705 40.2143 65.2501 41.1071 65.3219H41.1429C41.3438 65.3517 41.547 65.3638 41.75 65.3578C42.0494 65.3474 42.3489 65.3715 42.6429 65.4296C42.1429 65.5374 41.5 65.6451 40.9643 65.7169C40.3571 65.8605 39.7857 65.9324 39.5 66.0042C38.8929 66.1478 36.3214 66.7224 34.9643 67.2251C33.8214 67.6201 32.5357 68.2305 32.5 68.2305L32.2857 68.3383L32.4643 68.5537C32.4643 68.5537 32.8929 69.1283 33.3214 69.5951C34.1875 70.3783 35.2066 70.9712 36.3135 71.336C37.4204 71.7008 38.5908 71.8294 39.75 71.7137C42.1429 71.4264 43.4643 70.816 43.9643 70.5646C44.222 71.4795 44.5321 72.3788 44.8929 73.2578C45.9643 75.9509 48.4643 81.1577 49.3929 82.9532C50.1429 84.4254 50.8929 85.7182 51.3929 86.58L51.5714 86.9032C51.4198 87.3708 51.1184 87.7749 50.7143 88.0522C50.6429 88.1241 50.6071 88.1959 50.5357 88.2318L50.5 88.3036V88.4113C50.4643 88.8781 50.3571 93.4386 53.3929 96.7422L53.4286 96.7781H53.4643C55 97.3885 56.9643 97.999 60.1786 97.999C63.4286 97.999 66.1786 97.209 67.1429 96.7422L67.2143 96.6704C69.3214 94.1568 70.3214 90.3145 70.3214 88.95V88.8781L70.1071 88.6627C69.6075 88.2182 69.258 87.6283 69.1071 86.975C69.3929 86.5441 69.8929 85.4668 70.3214 84.605C70.4718 84.2209 70.6509 83.8487 70.8571 83.4918C71.75 81.6964 74.3571 76.0228 75.4286 73.3655C76.0714 71.6419 76.4286 70.816 76.6071 70.4569C77.0714 70.7082 78.3214 71.2828 80.6786 71.5341C83.7143 71.8214 86.6071 69.8105 87.4286 68.6614C87.5714 68.4819 87.7857 68.2305 87.8214 68.1946L88 67.9792L87.75 67.8714C87.7143 67.8714 87.6429 67.8355 87.1429 67.656L85.4643 67.1174L83.7857 66.5428C83.3214 66.3992 81.25 65.9324 79.7857 65.6092L78.6429 65.3578L79 65.286C82.5 64.5319 91.7857 62.916 91.25 53.6874Z" fill="black"/>
<path d="M32.6429 44.3511C32.5357 46.757 32.5714 49.3784 33.1071 51.6765C32.622 51.1584 32.1093 50.6669 31.5714 50.2043C31.0714 50.7429 30.6429 51.3174 30.1429 51.8202C30.6569 49.2337 31.497 46.7238 32.6429 44.3511Z" fill="#CE1141"/>
<path d="M90.3214 50.7429L90.4643 51.3892L89.2143 50.4915C88.6429 50.7429 88.1071 51.102 87.5714 51.3533C87.9609 48.9928 88.0807 46.5953 87.9286 44.2075C89.0357 46.2543 89.6429 48.4806 90.3214 50.7429Z" fill="#CE1141"/>
<path d="M60.3214 73.5091C61.6071 75.52 64 76.0946 66.2143 75.52C67.029 75.3368 67.82 75.0597 68.5714 74.6941C67.8027 76.8843 67.4278 79.1945 67.4643 81.5168C67.4709 83.5307 67.7964 85.5308 68.4286 87.4418C68.1071 87.3699 67.8214 87.1186 67.4643 86.9749C63.0714 84.7486 56.8929 84.8204 52.5714 87.1186C52.7857 86.4363 53 85.6463 53.1786 84.9281C53.8214 81.5886 53.3571 78.1054 52.2143 75.0532C54.5357 76.0227 57.9286 76.2382 59.8214 74.0837C59.97 73.8769 60.1374 73.6846 60.3214 73.5091Z" fill="#CE1141"/>
<path d="M50.5357 75.1609C50.4286 76.0946 50.1071 77.1718 49.1071 77.5309C48.2857 77.7464 47.5714 77.2796 47.0357 76.705C46.787 76.4318 46.6145 76.0973 46.5357 75.7355C47.7857 76.5614 49.4286 75.915 50.5 75.125L50.5357 75.1609Z" fill="#CE1141"/>
<path d="M74.0714 75.2686C73.7857 76.1305 73.0357 76.9923 72.1786 77.1718C71.8575 77.2218 71.5288 77.1732 71.2357 77.0322C70.9425 76.8912 70.6986 76.6646 70.5357 76.3818C70.3111 76.0646 70.1754 75.6926 70.1429 75.3046C71.25 76.2023 73 75.9868 74.0714 75.2686Z" fill="#CE1141"/>
<path d="M71.6429 77.7105C72.1147 77.7574 72.5909 77.696 73.0357 77.5309C71.7857 80.655 70.2857 83.6714 68.75 86.6877C68.2143 85.1795 68.3571 83.5636 68.4286 81.8759C68.667 79.911 69.0976 77.9745 69.7143 76.0946C70.1429 76.8128 70.8214 77.5668 71.6429 77.7105Z" fill="#CE1141"/>
<path d="M52.1071 86.6518V86.6877C50.2143 83.815 48.7857 80.7627 47.4286 77.7105C48.0357 78.0337 49.0714 78.2491 49.7143 77.8182C50.291 77.3646 50.7048 76.7342 50.8929 76.0228C52.4286 79.1109 52.7857 83.1327 52.1071 86.6518Z" fill="#CE1141"/>
<path d="M69.7143 89.0936C69.4651 91.7215 68.4318 94.2123 66.75 96.2394C62.8571 97.7835 57.6071 97.9272 53.7143 96.2753C51.7857 94.1926 51.0714 91.4995 50.9643 88.6268C55.1071 85.6104 61.5714 84.9281 66.3214 87.0827C67.5 87.6572 68.6786 88.2318 69.7143 89.0936Z" fill="#CE1141"/>
<path d="M85.75 67.4764C82.2263 66.2141 78.5253 65.5232 74.7857 65.4296C74.4643 61.4438 74 58.966 73.2143 56.7038C71.3929 56.5961 63.3214 56.2729 60.1786 56.2729C57.0714 56.2729 49.1071 56.7756 47.3214 56.8833C46.3042 59.6973 45.6442 62.6291 45.3571 65.6092C41.3848 65.9176 37.4702 66.7506 33.7143 68.0869C33.2143 68.2664 33 68.446 33 68.4101C33.6745 69.2719 34.5301 69.9731 35.5056 70.4635C36.4812 70.9539 37.5525 71.2214 38.6429 71.2469C39.7143 71.2828 41.75 71.0673 43.0357 70.4928C43.3929 70.3492 44.1071 70.026 44.1071 70.026C44.2466 70.267 44.3661 70.5193 44.4643 70.7801C44.8214 71.7855 45.2857 73.2578 45.6071 73.8682C46.0714 74.8378 46.8214 75.556 48.0357 75.5919C48.432 75.5695 48.8189 75.4618 49.1701 75.2759C49.5214 75.09 49.8288 74.8304 50.0714 74.5146C46.9286 74.335 45.6071 72.6473 45.3929 70.0978C44.6429 69.9901 44.4286 69.9183 44.3571 69.4873C44.311 69.2614 44.3159 69.028 44.3716 68.8042C44.4272 68.5805 44.5321 68.3721 44.6786 68.1946C45.0357 67.6919 45.6429 67.2251 47.1429 67.6919C47.9966 68.0258 48.7831 68.5124 49.4643 69.1283C50.1071 69.7387 52 71.7137 53.1429 72.3601C54.3571 73.0782 56.6786 73.7605 58.1786 72.2523C59.1329 71.3453 59.7609 70.1455 59.9643 68.841C57.5973 68.7764 55.2361 68.5725 52.8929 68.2305C52.25 68.1228 52.5357 67.5124 53.0357 67.656C53.0357 67.656 57.1429 68.1946 60.0714 68.2305C60.0714 67.8714 60.0714 67.2969 60.1071 66.6146C57.6386 66.5623 55.1783 66.3101 52.75 65.8605C52.2143 65.7169 52.3214 65.1065 52.8214 65.2501C55.2321 65.6467 57.6657 65.8866 60.1071 65.9683C60.1071 65.4655 60.1429 64.7115 60.1429 64.0292C57.7255 63.9931 55.3142 63.7771 52.9286 63.3828C52.3214 63.2751 52.4643 62.7365 52.9286 62.8083C55.3206 63.1367 57.7292 63.3285 60.1429 63.3828V61.7669C60.1429 61.1565 60.6786 61.1206 60.6786 61.731V63.3469C62.9527 63.2913 65.2202 63.0753 67.4643 62.7006C68.1786 62.5569 68.1071 63.1674 67.7857 63.2033C65.4407 63.6579 63.0649 63.934 60.6786 64.0292V65.9683C62.8571 65.8965 65.4286 65.8246 67.6071 65.3219C68.4286 65.1424 68.5 65.7887 67.8214 65.8965C65.4715 66.2992 63.0969 66.5392 60.7143 66.6146C60.7143 67.1533 60.7143 67.8355 60.75 68.2305C63.2244 68.1544 65.6926 67.9386 68.1429 67.5842C68.7143 67.4764 68.8214 68.0869 68.2143 68.1946C67.6071 68.2664 63.5 68.8051 60.8571 68.8769C61.1429 69.7746 61.1786 71.0673 62.4643 72.1805C63.6786 73.2578 65.7857 73.1501 67.25 72.2882C68.3929 71.606 70.2143 69.631 70.8571 69.0205C71.3929 68.5537 72.6786 67.3687 74.3929 67.4046C76.0714 67.4405 76.1071 68.3024 76.2143 68.5537C76.2857 68.841 76.3571 69.3078 75.9643 69.5592C75.6786 69.7387 75.3929 69.6669 75.1071 69.8105C74.8929 71.211 74.4643 72.791 73.3571 73.6169C72.1786 74.5146 70.3571 74.6223 70.3571 74.6223C70.3571 74.6223 70.6071 74.9096 70.6786 74.9814C71.155 75.3229 71.7398 75.4763 72.3214 75.4123C73.0795 75.2826 73.7786 74.9186 74.3214 74.371C74.8929 73.6169 75.4286 72.0728 75.8214 71.0673C75.9643 70.7082 76.3214 70.026 76.4286 69.7387C76.7857 69.8823 76.9286 69.9901 77.5714 70.2414C78.8837 70.7373 80.2769 70.9809 81.6786 70.9596C83.4286 70.9237 85.4286 69.8464 86.6071 68.7333C86.7857 68.5537 87.2143 68.051 87.2143 68.051C87.2143 68.051 86.0714 67.5842 85.75 67.4764Z" fill="#CE1141"/>
<path d="M66.9286 89.5245C67.25 90.1349 67 90.8172 66.6429 91.3558C66.3253 91.7534 65.8998 92.0499 65.4181 92.2092C64.9363 92.3685 64.4189 92.3839 63.9286 92.2535C63.3116 92.0562 62.7816 91.6502 62.4286 91.1045C62.2857 91.6072 62.6429 91.9663 62.6071 92.4331C62.5921 92.4561 62.5723 92.4756 62.5491 92.4902C62.5258 92.5047 62.4997 92.514 62.4725 92.5174C62.4454 92.5209 62.4178 92.5183 62.3917 92.5099C62.3656 92.5016 62.3416 92.4876 62.3214 92.469C61.75 91.7149 61.5357 90.5658 62.0357 89.7399C62.6429 88.5908 63.8214 88.124 65.0714 88.2317C65.4605 88.2847 65.8315 88.4294 66.1543 88.654C66.4771 88.8787 66.7424 89.177 66.9286 89.5245Z" fill="black"/>
<path d="M58.3214 89.9195C58.8214 90.7454 58.5714 91.8227 58.1071 92.6127C58.0357 92.7204 57.9286 92.8281 57.7857 92.7204C57.5714 92.469 57.8571 92.2536 57.8929 92.0022C57.958 91.7931 57.9703 91.5709 57.9286 91.3559C57.6265 91.8015 57.2031 92.1503 56.7091 92.3604C56.2151 92.5706 55.6713 92.6332 55.1429 92.5408C54.7446 92.4446 54.3749 92.2544 54.0644 91.9859C53.7538 91.7173 53.5114 91.3783 53.3571 90.9968C53.2832 90.7506 53.2641 90.4911 53.3011 90.2366C53.3382 89.9822 53.4304 89.7391 53.5714 89.5245C54.3214 88.5191 55.6786 88.3036 56.7857 88.6627C57.4335 88.8783 57.9799 89.3256 58.3214 89.9195Z" fill="black"/>
<path d="M66.8571 95.3417C66.7857 95.5213 66.75 95.5213 66.6071 95.7008C66.2143 95.5931 65.7857 95.4495 65.3571 95.3058C61.7857 93.9054 57.25 94.3004 53.8929 95.7008C53.7828 95.6247 53.7061 95.509 53.6786 95.3776C57.5714 93.6181 62.9286 93.4026 66.8571 95.3417Z" fill="black"/>
<path d="M67.5 76.2741C66.9286 79.1109 65.1429 82.3786 62.1429 83.2045C59.7857 83.815 57.1429 83.3123 55.5357 81.3373C54.427 79.9124 53.7677 78.1866 53.6429 76.3818C53.7525 76.3239 53.8766 76.2989 54 76.31C54.25 79.0032 55.6429 81.9477 58.3214 82.7736C59.5091 83.1529 60.7822 83.1676 61.9782 82.8158C63.1741 82.464 64.2386 81.7617 65.0357 80.7986C66.0713 79.4175 66.7909 77.8235 67.1429 76.1305C67.2092 76.127 67.2755 76.138 67.3371 76.1628C67.3988 76.1876 67.4544 76.2256 67.5 76.2741Z" fill="black"/>
<path d="M32.3929 26.7198C31.8229 26.241 31.0997 25.9859 30.3571 26.0017C29.5357 26.0376 26.5 27.0789 26.5 31.6035C26.5 36.1639 29.25 37.6361 30.8929 37.6361C32.5357 37.6361 34.2143 36.3793 34.75 34.153C34.8214 33.8298 34.7857 33.7939 34.4643 33.6503L33.3929 33.2194C33.1429 33.1475 33.1071 33.1475 32.9643 33.5784C32.8571 33.9016 32.3929 35.1943 31.2857 35.1943C30.1786 35.1943 29.7143 33.5784 29.7143 31.8548C29.7143 30.1671 30 28.5512 31.3571 28.5512C32.7143 28.5512 33 29.9876 33.1071 30.5262C33.1429 30.7775 33.1786 30.7775 33.4286 30.7775H34.4286C34.6429 30.7775 34.6429 30.7775 34.6429 30.3107V26.5762C34.6429 26.3608 34.6071 26.3608 34.1786 26.3608H33.2857C33.1071 26.3608 33.1071 26.3967 33 26.648C32.8929 26.7917 32.6786 27.0071 32.3929 26.7198Z" fill="black"/>
<path d="M73.1429 28.5512L75.2143 35.1225C75.3214 35.4098 75.3214 35.4457 75.5 35.4457H75.7857C76.1429 35.4457 76.1429 35.4457 76.1429 35.733V36.9898C76.1429 37.4207 76.1071 37.4207 75.8929 37.4207H71.7857C71.4286 37.4207 71.4286 37.3848 71.4286 37.1334V35.8407C71.4286 35.4457 71.4643 35.4457 71.75 35.4457H72.1429C72.3571 35.4457 72.3571 35.3739 72.2857 35.1225L71.9643 34.1171C71.8571 33.9375 71.8214 33.9375 71.5714 33.9375H69.0714L69.6071 32.4294H71.1429C71.3929 32.4294 71.4286 32.3935 71.3571 32.2139L70.4286 29.3053C70.3929 29.1257 70.3214 29.1257 70.2857 29.2694L69.3571 32.2139C69.2857 32.4294 69.2857 32.4294 69.6429 32.4294L69.1071 33.9375C68.8214 33.9375 68.8214 33.9375 68.75 34.1171L68.4286 35.1225C68.3571 35.4098 68.3571 35.4457 68.5357 35.4457H68.9286C69.25 35.4457 69.25 35.4816 69.25 35.8407V37.1334C69.25 37.3848 69.2143 37.4207 68.8929 37.4207H66.0714C65.8214 37.4207 65.8214 37.3848 65.8214 36.9898V35.733C65.8214 35.4816 65.8571 35.4457 66.1429 35.4457H66.4286C66.4615 35.4509 66.495 35.4493 66.5273 35.4412C66.5596 35.4331 66.59 35.4186 66.6166 35.3985C66.6432 35.3785 66.6656 35.3532 66.6824 35.3243C66.6991 35.2954 66.71 35.2634 66.7143 35.2303L68.8214 28.5871C68.8929 28.4076 68.8929 28.3717 68.5714 28.3717H68.1786C67.8571 28.3717 67.8571 28.3358 67.8571 28.0844V26.7558C67.8571 26.3608 67.8571 26.3608 68.3214 26.3608H73.7857C74.1071 26.3608 74.1071 26.3967 74.1071 26.7558V28.0126C74.1071 28.2998 74.1071 28.2998 73.7143 28.2998H73.2857C73.0714 28.2639 73.0714 28.3358 73.1429 28.5512Z" fill="black"/>
<path d="M83.0357 33.5426H83.75C84.0714 33.5426 84.0714 33.5785 84.0714 33.758C84.0714 34.4044 83.6071 35.1944 82.4286 35.1944C81.3214 35.1944 80.8571 33.5785 80.8571 31.8548C80.8571 30.1671 81.1429 28.5512 82.5 28.5512C82.8985 28.5394 83.2892 28.6646 83.6073 28.9062C83.9255 29.1477 84.1522 29.4912 84.25 29.8798C84.2857 30.1312 84.2857 30.1312 84.5714 30.1312H85.5714C85.7857 30.1312 85.7857 30.1312 85.7857 29.6285V26.5762C85.7857 26.3608 85.75 26.3608 85.3214 26.3608H84.4286C84.25 26.3608 84.25 26.3608 84.1071 26.648C84.0714 26.7917 83.8214 27.0071 83.5357 26.7199C82.9627 26.2464 82.2416 25.992 81.5 26.0017C80.6786 26.0376 77.6429 27.079 77.6429 31.6035C77.6429 36.1639 80.3572 37.6362 82.0357 37.6362C84.5357 37.6362 86.4643 35.733 86.4643 32.1421C86.4643 31.783 86.4286 31.7471 85.9286 31.7471H82.9643C82.6786 31.7471 82.6429 31.783 82.6429 32.1062V33.2912C82.6429 33.5426 82.6786 33.5426 83.0357 33.5426Z" fill="black"/>
<path d="M92.6429 26.2889C89.9286 26.2889 87.75 28.8744 87.75 31.9985C87.75 35.1584 89.9286 37.6721 92.6429 37.6721C95.3214 37.6721 97.5 35.1584 97.5 31.9985C97.5 28.8744 95.3214 26.2889 92.6429 26.2889L92.6071 28.3357C93.6071 28.3357 94.4286 29.9876 94.4286 31.9985C94.4286 34.0094 93.6429 35.6612 92.6071 35.6612C91.6071 35.6612 90.7857 34.0094 90.7857 31.9985C90.7857 29.9876 91.6071 28.3357 92.6071 28.3357L92.6429 26.2889Z" fill="black"/>
<path d="M37.8214 35.1943V28.623C37.8214 28.3717 37.7857 28.3358 37.5357 28.3358H37.2143C36.8929 28.3358 36.8929 28.2998 36.8929 28.0844V26.648C36.8929 26.3967 36.9286 26.3608 37.2857 26.3608H41.1429C41.4286 26.3608 41.4643 26.3608 41.4643 26.648V27.9767C41.4643 28.2639 41.4286 28.2639 41.1429 28.2639H40.9286C40.75 28.2639 40.7143 28.2639 40.75 28.5153V30.4185C40.75 30.8853 40.75 30.9212 41.1429 30.9212H43.2143C43.6071 30.9212 43.6071 30.8853 43.6071 30.4185V28.5153C43.6071 28.2639 43.5714 28.2639 43.4286 28.2639H43.2143C42.8929 28.2639 42.8571 28.2639 42.8571 27.9767V26.648C42.8571 26.3608 42.9286 26.3608 43.2143 26.3608H47.0357C47.4643 26.3608 47.4643 26.3608 47.4643 26.648V28.0844C47.4643 28.3358 47.4286 28.3358 47.1071 28.3358H46.7857C46.5357 28.3358 46.5357 28.3717 46.5357 28.623V35.1943C46.5357 35.4457 46.5714 35.4457 46.8571 35.4457H47.1786C47.4643 35.4457 47.4643 35.4457 47.4643 35.8407V37.1334C47.4643 37.3489 47.4643 37.4207 47.1071 37.4207H43.0357C42.7857 37.4207 42.7857 37.4207 42.7857 36.9898V35.733C42.75 35.4457 42.7857 35.4457 43.1071 35.4457H43.3214C43.5714 35.4457 43.5714 35.4098 43.5714 35.1584V33.1116C43.5714 32.6448 43.5357 32.6089 43.2143 32.6089H41.1429C40.8214 32.6089 40.7857 32.6448 40.7857 33.1116V35.1584C40.7857 35.4457 40.7857 35.4457 41.0357 35.4457H41.25C41.5714 35.4457 41.5714 35.4457 41.5714 35.733V36.9898C41.5714 37.4207 41.5714 37.4207 41.3214 37.4207H37.2143C36.8929 37.4207 36.8929 37.4207 36.8929 37.1334V35.8407C36.8929 35.4457 36.9286 35.4457 37.1429 35.4457H37.5C37.8214 35.4457 37.8214 35.4457 37.8214 35.1943Z" fill="black"/>
<path d="M50.3214 28.5512C50.3214 28.2998 50.3214 28.2998 50.1429 28.2998H49.7857C49.4286 28.2998 49.4286 28.2639 49.4286 28.0126V26.648C49.4286 26.3608 49.4643 26.3608 49.75 26.3608H53.5714C54 26.3608 54 26.3608 54 26.648V28.0844C54 28.3358 53.9643 28.3358 53.6429 28.3358H53.4643C53.2143 28.3358 53.2143 28.3717 53.2143 28.623V35.1943C53.2143 35.4457 53.25 35.4457 53.5357 35.4457H53.8214C54.0714 35.4457 54.0714 35.4457 54.0714 35.8407V37.1334C54.0714 37.3489 54.0714 37.4207 53.75 37.4207H49.6786C49.4286 37.4207 49.4286 37.4207 49.4286 36.9898V35.733C49.3929 35.4457 49.4286 35.4457 49.75 35.4457H50.0714C50.3214 35.4457 50.3214 35.4457 50.3214 35.1584V28.5512Z" fill="black"/>
<path d="M61.5 26.7199C60.927 26.2464 60.2059 25.992 59.4643 26.0017C58.6429 26.0376 55.6071 27.079 55.6071 31.6035C55.6071 36.1639 58.3214 37.6362 60 37.6362C61.6429 37.6362 63.3214 36.3794 63.8571 34.153C63.9286 33.8298 63.8929 33.7939 63.5714 33.6503L62.5 33.2194C62.25 33.1476 62.2143 33.1476 62.0714 33.5785C61.9643 33.9016 61.5 35.1944 60.3929 35.1944C59.2857 35.1944 58.8214 33.5785 58.8214 31.8548C58.8214 30.1671 59.1071 28.5512 60.4643 28.5512C61.8214 28.5512 62.1071 29.9876 62.2143 30.5262C62.25 30.7776 62.2857 30.7776 62.5357 30.7776H63.5357C63.75 30.7776 63.75 30.7776 63.75 30.3108V26.5762C63.75 26.3608 63.7143 26.3608 63.2857 26.3608H62.3929C62.2143 26.3608 62.2143 26.3967 62.1071 26.648C62 26.7917 61.7857 27.0071 61.5 26.7199Z" fill="black"/>
<path d="M37.1786 42.6275V49.1629C37.1786 49.3783 37.1429 49.3783 36.9286 49.3783H36.5714C36.2857 49.3783 36.25 49.4502 36.25 49.7374V51.102C36.25 51.3533 36.3214 51.3533 36.6071 51.3533H42.5714L40.5357 49.2706C40.1429 49.2706 40.1071 49.2706 40.1071 48.8397V46.9724C40.1071 46.6134 40.1429 46.5774 40.5357 46.5774V44.8897C40.1071 44.8897 40.1071 44.8538 40.1071 44.4947V42.5916C40.1071 42.1966 40.1429 42.1966 40.5 42.1966C40.8929 42.1966 42.4643 42.2325 42.4643 43.597C42.4643 44.9615 41.0357 44.8897 40.5357 44.8897V46.6134C40.9643 46.6134 42.4643 46.6493 42.4643 48.0138C42.4643 49.3783 41.0357 49.3424 40.5357 49.3424L42.5714 51.4251C44.0714 51.4251 45.1786 50.0606 45.1786 48.5165C45.1786 46.9724 44.2143 46.362 43.4286 45.7875C44 45.3565 44.9643 44.7102 44.9643 43.1661C44.9643 41.4425 43.2857 40.3652 42.25 40.3652H36.75C36.2857 40.3652 36.25 40.3652 36.25 40.7243V42.1247C36.25 42.3402 36.2857 42.3761 36.6071 42.3761H36.9643C37.1786 42.3043 37.1786 42.3402 37.1786 42.6275Z" fill="black"/>
<path d="M55.4286 42.5197V48.1574C55.4286 49.5938 54.6786 51.7124 51.8571 51.7124C49 51.7124 47.6429 49.5938 47.6429 48.1574V42.5197C47.6429 42.2684 47.6071 42.2684 47.3929 42.2684H47.0714C46.75 42.2684 46.75 42.2684 46.75 41.9811V40.7243C46.75 40.2934 46.7857 40.2934 47.1429 40.2934H50.9643C51.25 40.2934 51.3214 40.2934 51.3214 40.6525V41.9093C51.3214 42.1966 51.2857 42.1966 50.8929 42.1966H50.5714C50.3929 42.1966 50.3571 42.2325 50.3571 42.4479V47.942C50.3687 48.3794 50.5515 48.7945 50.8658 49.0971C51.1802 49.3997 51.6006 49.5653 52.0357 49.5579C52.2523 49.573 52.4696 49.5419 52.6734 49.4666C52.8771 49.3912 53.0627 49.2733 53.2179 49.1207C53.3731 48.9681 53.4944 48.7841 53.5738 48.5809C53.6532 48.3778 53.6889 48.16 53.6786 47.942V42.5197C53.6786 42.1966 53.6429 42.1966 53.3929 42.1966H53.1071C52.7857 42.1966 52.75 42.1966 52.75 41.9093V40.6525C52.75 40.3293 52.75 40.2934 53.0714 40.2934H55.8929C56.3929 40.2934 56.3929 40.2934 56.3929 40.6525V41.9811C56.3929 42.2684 56.3929 42.2684 56.0357 42.2684H55.6786C55.4286 42.3043 55.4286 42.3043 55.4286 42.5197Z" fill="black"/>
<path d="M68.75 49.3783H68.3571C68.1071 49.3783 68.0714 49.4502 68.0714 49.8092V51.102C68.0714 51.3533 68.1071 51.3533 68.3929 51.3533H75.4286C75.75 51.3533 75.7857 51.3533 75.7857 50.9583V47.7624C75.7857 47.4752 75.75 47.4752 75.4286 47.4752H74.4286C74.1071 47.4752 74.0714 47.4752 74.0714 47.8702V48.9833C74.0714 49.4143 74.0357 49.4502 73.75 49.4502H72.1786C71.7143 49.4502 71.6786 49.3783 71.6786 49.0911V42.6993C71.6786 42.2684 71.6786 42.2684 71.9286 42.2684H72.3214C72.6429 42.2684 72.6429 42.2325 72.6429 41.9811V40.7243C72.6429 40.3652 72.6429 40.3293 72.2857 40.3293H68.5357C68.0357 40.3293 68.0357 40.3652 68.0357 40.7243V42.017C68.0357 42.3043 68.0714 42.3402 68.3929 42.3402H68.7143C68.9643 42.3402 68.9643 42.3402 68.9643 42.7352V49.0911C69 49.3783 68.9643 49.3783 68.75 49.3783Z" fill="black"/>
<path d="M85.0714 48.3011C85.0714 50.6352 82.8571 51.6406 81.9286 51.6406C81.192 51.6214 80.4799 51.3702 79.8929 50.9224C79.6071 50.6352 79.2857 50.9584 79.1786 51.102C79.0357 51.3534 79 51.3893 78.8928 51.3893H78.4286C77.9643 51.3893 78 51.3893 78 51.1379V48.0856C78 47.5829 78 47.5829 78.1786 47.5829H78.8928C79.1428 47.5829 79.1428 47.6188 79.2143 47.8343C79.3475 48.2653 79.6125 48.643 79.9715 48.9138C80.3306 49.1846 80.7655 49.3346 81.2143 49.3425C81.75 49.3425 82.1786 49.1988 82.1786 48.732C82.1786 47.6906 81.5714 47.4393 80.5 46.8647C79.4286 46.3261 77.8214 45.6797 77.8214 43.3098C77.8184 42.4693 78.1346 41.6594 78.7054 41.0454C79.2763 40.4315 80.0587 40.0597 80.8929 40.0061C81.5979 40.02 82.2775 40.2731 82.8214 40.7243C82.8772 40.7688 82.9423 40.7999 83.0119 40.815C83.0815 40.8302 83.1536 40.829 83.2226 40.8117C83.2917 40.7943 83.3558 40.7612 83.4101 40.7149C83.4644 40.6686 83.5074 40.6104 83.5357 40.5448C83.7143 40.2575 83.7143 40.2575 83.8571 40.2575H84.3214C84.75 40.2575 84.7857 40.2575 84.7857 40.5089V43.5611C84.7857 44.0279 84.7857 44.0638 84.5714 44.0638H83.8929C83.6071 44.0638 83.6071 44.0279 83.5357 43.8125C83.377 43.3766 83.0908 42.9992 82.7147 42.73C82.3386 42.4607 81.8902 42.3124 81.4286 42.3043C81.3326 42.2955 81.2358 42.308 81.1452 42.341C81.0545 42.3739 80.9722 42.4265 80.904 42.4951C80.8359 42.5636 80.7835 42.6464 80.7507 42.7375C80.7179 42.8287 80.7055 42.926 80.7143 43.0225C80.7143 43.6689 81.4286 44.2434 82.6429 44.8538C83.8571 45.4284 85.0714 46.3261 85.0714 48.3011Z" fill="black"/>
<path d="M58.9643 49.3783H58.5714C58.3214 49.3783 58.2857 49.4502 58.2857 49.8092V51.102C58.2857 51.3533 58.3214 51.3533 58.6429 51.3533H65.6786C65.9643 51.3533 66 51.3533 66 50.9583V47.7624C66 47.4752 65.9643 47.4752 65.6786 47.4752H64.6429C64.3214 47.4752 64.2857 47.4752 64.2857 47.8702V48.9833C64.2857 49.4143 64.25 49.4502 63.9643 49.4502H62.3929C61.9286 49.4502 61.9286 49.3783 61.9286 49.0911V42.6993C61.9286 42.2684 61.9286 42.2684 62.1429 42.2684H62.5357C62.8571 42.2684 62.8571 42.2325 62.8571 41.9811V40.7243C62.8571 40.3652 62.8571 40.3293 62.5 40.3293H58.75C58.2857 40.3293 58.2857 40.3652 58.2857 40.7243V42.017C58.2857 42.3043 58.2857 42.3402 58.6071 42.3402H58.9286C59.1786 42.3402 59.1786 42.3402 59.1786 42.7352V49.0911C59.2143 49.3783 59.1786 49.3783 58.9643 49.3783Z" fill="black"/>
<path d="M33.7143 53.5079C35.25 56.4883 38.3571 57.4579 41.5357 57.2783C43.2857 57.2783 45 57.0988 46.75 56.9911V57.0988C45.8633 59.5996 45.2408 62.1873 44.8929 64.8192C40.3214 64.9987 35.6429 64.6037 32.2857 61.5515C29.9643 59.2174 29.3929 55.9856 29.8929 52.7897C30.4286 52.1434 31.0357 51.6047 31.5714 50.9584C32.3214 51.7843 33.5357 52.4306 33.7143 53.5079Z" fill="white"/>
<path d="M90.6071 52.1793C90.7143 52.6461 90.7143 53.077 90.7857 53.5797C91 57.0988 89.4643 60.3665 86.4643 62.1619C83.1786 64.1728 79.3929 64.8192 75.3571 64.9628C75.2857 64.6037 75.25 64.101 75.1786 63.706C74.897 61.3743 74.4312 59.0689 73.7857 56.8115C78.1071 56.7397 83.3571 57.8888 86.2143 53.9029C86.5714 53.3284 86.9643 52.8615 87.2857 52.2511C87.9286 51.9638 88.5357 51.5329 89.1786 51.2097C89.7143 51.4611 90.0714 51.892 90.6071 52.1793Z" fill="white"/>
<path d="M74.2143 70.0978C74.25 71.4623 73.7857 72.8628 72.5714 73.5091C71.9982 73.8041 71.3572 73.9404 70.7143 73.9041C70.6964 73.7731 70.6964 73.6402 70.7143 73.5091C71.6786 73.5091 72.6429 73.1501 73.1786 72.3601C73.5109 71.7298 73.6827 71.0266 73.6786 70.3133C73.8372 70.1991 74.021 70.1251 74.2143 70.0978Z" fill="white"/>
<path d="M49.8571 73.7605C49.6587 73.8171 49.4485 73.8171 49.25 73.7605C48.8156 73.7611 48.3858 73.6713 47.9875 73.4968C47.5893 73.3222 47.2314 73.0667 46.9361 72.7463C46.6409 72.4259 46.4149 72.0475 46.2722 71.6349C46.1295 71.2224 46.0733 70.7846 46.1071 70.3491C46.3032 70.2772 46.5182 70.2772 46.7143 70.3491C46.7143 71.606 47.2143 73.2578 49.7857 73.2578C49.9643 73.545 49.7857 73.5809 49.8571 73.7605Z" fill="white"/>
</svg>
