<svg width="124" height="124" viewBox="0 0 124 124" fill="none" xmlns="http://www.w3.org/2000/svg">
<rect width="124" height="124" rx="32" fill="#DED3EC"/>
<path d="M29.5226 42.1868C29.5226 42.1868 39.3038 26 59.3409 26C79.378 26 88.7318 41.7545 88.7318 41.7545H115.891L114.799 48.479C114.799 48.479 114.039 51.1688 112.805 51.457H114.657C114.657 51.457 115.274 53.8586 111.57 62.024H119.5C119.5 62.024 119.785 76.3376 102.691 83.062C102.691 83.062 93.8597 85.8959 89.349 81.0447C89.349 81.0447 80.3276 98 59.3409 98C38.3541 98 28.9054 80.5644 28.9054 80.5644H4.5L8.39346 73.5037H5.73451L8.86828 67.6918H14.1387L15.0408 65.4823H12.5718L18.6494 54.1468H22.0681L23.445 50.6885H20.5012L25.0119 42.1868H29.5226Z" fill="white"/>
<path d="M59.6257 94.2055C76.7664 94.2055 90.6785 79.94 90.6785 62.3122C90.6785 44.7325 76.7664 30.467 59.6257 30.467C42.485 30.467 28.573 44.7325 28.573 62.3122C28.573 79.94 42.485 94.2055 59.6257 94.2055Z" fill="#FDB927"/>
<path d="M63.0444 62.1681H61.7149C61.6656 62.1715 61.6192 62.1928 61.5843 62.2281C61.5494 62.2635 61.5283 62.3104 61.525 62.3602C61.525 62.4563 61.6199 62.5043 61.7149 62.5043H63.0919C63.5667 62.5043 63.994 62.5524 63.8515 62.7445L60.2905 69.6611C60.2312 69.8195 60.1244 69.9552 59.9852 70.0493C59.846 70.1434 59.6812 70.1911 59.5138 70.1858C59.3464 70.1805 59.1849 70.1225 59.0517 70.0198C58.9186 69.9171 58.8205 69.7749 58.7711 69.6131L57.0142 60.3909L63.1868 55.5397C63.8041 54.9633 64.9911 54.0987 65.6084 54.0987H66.9853C67.7925 54.0987 68.0774 54.483 67.8875 55.0113L67.6501 55.4436C67.5076 55.7318 66.9853 55.7799 66.6055 55.7799H65.7983C65.7789 55.777 65.7592 55.7788 65.7406 55.7851C65.7221 55.7913 65.7052 55.8019 65.6914 55.8158C65.6776 55.8298 65.6672 55.8469 65.661 55.8656C65.6548 55.8844 65.6531 55.9044 65.6558 55.924C65.6558 56.02 65.7033 56.1161 65.7983 56.1161H66.6055C66.9378 56.1161 67.3177 56.1161 67.1752 56.3562L64.3264 61.928C64.1839 62.1201 63.5667 62.1681 63.0444 62.1681ZM73.7751 65.5784C70.8788 69.1808 69.2644 70.3816 66.3206 70.3816C65.3235 70.3816 64.8012 70.1414 65.0386 69.6611L68.5522 62.5524H69.8817C71.3536 62.5524 71.1637 63.8012 70.7838 65.5304C70.6889 65.7705 70.8788 65.7705 71.0687 65.5784L74.3924 59.6705C74.5348 59.2862 74.1075 59.2382 73.9176 59.5264C72.2557 61.7839 70.4989 61.6398 69.7392 61.6398H69.1694L72.873 54.435H74.3924C76.2916 54.531 77.1463 56.1641 76.624 60.1027H77.3837L80.1376 54.6271C80.375 54.1468 79.9002 53.7145 79.3779 53.7145L60.7653 53.7625C59.6732 53.7625 59.6257 54.5791 60.6703 54.5791C61.525 54.5791 61.4775 55.7799 60.7178 56.3562L52.7884 62.7445L54.4028 70.2375C54.4426 70.4913 54.5794 70.7191 54.7837 70.8718C54.9879 71.0245 55.2433 71.09 55.4949 71.054H70.8788C71.0978 71.0749 71.3185 71.0371 71.5185 70.9443C71.7186 70.8516 71.8909 70.7072 72.0183 70.5257L74.7722 65.6745C75.1521 64.954 74.2974 65.002 73.7751 65.5784Z" fill="#552583"/>
<path d="M39.7311 63.561H34.8405L41.0131 55.2995L39.7311 63.561ZM38.5915 68.7004C38.4491 69.517 37.5944 70.0934 36.5498 70.3816L35.4578 70.6698L36.3599 69.0367C36.5973 68.5563 36.075 68.3162 35.5052 68.9886C31.7067 73.4556 30.4722 75.6171 24.5846 75.6171H23.0177C22.5429 75.6171 22.0206 75.4249 22.3529 74.9926L24.4421 71.054H32.324C33.3686 71.054 33.1312 70.2375 32.4664 70.2375C32.2272 70.1982 31.9984 70.1098 31.7942 69.9776C31.5901 69.8454 31.4149 69.6723 31.2794 69.469C31.181 69.2912 31.1333 69.0893 31.1417 68.8858C31.1501 68.6822 31.2142 68.485 31.3269 68.3162L34.3182 64.2335H39.3512L38.5915 68.7004ZM50.2719 70.2375C50.1051 70.2214 49.946 70.159 49.8119 70.0574C49.6779 69.9557 49.5742 69.8185 49.5122 69.6611C49.3584 69.1903 49.3752 68.6795 49.5597 68.2201L56.7294 55.3475C56.8243 55.1074 57.1567 54.579 57.4891 54.579C58.1063 54.579 58.3912 53.7625 57.3466 53.7625H51.5539C50.5093 53.7625 50.5093 54.579 51.5064 54.579C51.5882 54.5733 51.6699 54.5889 51.744 54.6243C51.8181 54.6596 51.882 54.7136 51.9296 54.781C51.9772 54.8485 52.0069 54.9271 52.016 55.0094C52.025 55.0918 52.0131 55.1751 51.9812 55.2515L50.4144 58.1814C50.177 58.4696 49.7496 58.5177 49.2748 58.5177H47.9453C47.8504 58.5177 47.7554 58.5657 47.7554 58.6618C47.7587 58.7116 47.7798 58.7585 47.8148 58.7939C47.8497 58.8292 47.8961 58.8505 47.9453 58.8539H49.2748C49.6547 58.8539 49.9396 58.9499 49.7496 59.3822L44.4317 69.1808C44.0519 69.7091 43.2922 69.8052 43.3397 68.7965L45.1914 54.483C45.2864 54.0507 45.1914 53.7145 44.7166 53.7145H41.8677C41.7217 53.7157 41.5786 53.7564 41.4534 53.8324C41.3282 53.9085 41.2253 54.017 41.1555 54.1467L40.1109 55.3956C40.016 55.5397 39.6836 55.5397 39.3987 55.5397H37.0247C36.9754 55.543 36.929 55.5644 36.8941 55.5997C36.8591 55.635 36.8381 55.682 36.8347 55.7318C36.8347 55.8279 36.9297 55.8759 37.0247 55.8759H38.9714C39.3037 55.8759 39.6836 55.972 39.5412 56.1641L36.8347 59.6224C36.678 59.7203 36.4966 59.7703 36.3124 59.7665H35.5527C35.4578 59.7665 35.3628 59.8145 35.3628 59.9106C35.3661 59.9604 35.3872 60.0074 35.4221 60.0427C35.4571 60.078 35.5035 60.0993 35.5527 60.1027H36.17C36.3599 60.1027 36.3599 60.1988 36.3124 60.2948L33.7484 63.561C33.5422 63.6644 33.3137 63.714 33.0837 63.7051H30.8046C30.7096 63.7051 30.6622 63.8012 30.6622 63.8972C30.6594 63.9168 30.6611 63.9368 30.6673 63.9555C30.6735 63.9743 30.6839 63.9914 30.6977 64.0054C30.7116 64.0193 30.7284 64.0299 30.747 64.0361C30.7655 64.0424 30.7853 64.0442 30.8046 64.0413H32.7513C33.0837 64.0413 33.2736 64.0894 33.1312 64.3295L29.4751 68.9406C28.8104 69.8532 25.4867 70.2855 24.822 70.2855L37.2146 46.8939C37.3138 46.698 37.4629 46.5323 37.6466 46.4141C37.8302 46.2959 38.0417 46.2294 38.2592 46.2215H40.8706C42.1051 46.2215 42.1051 45.3569 41.0131 45.3569H27.8133C26.7212 45.3569 26.6737 46.2215 27.9557 46.2215H30.3773C31.0895 46.2215 31.2794 46.6057 31.0895 46.99L30.7571 47.6144C30.6622 47.8065 30.4722 47.9026 29.8075 47.9026H25.4867C25.3917 47.9026 25.3443 47.9986 25.3443 48.0947C25.3415 48.1143 25.3432 48.1342 25.3494 48.153C25.3556 48.1718 25.366 48.1888 25.3798 48.2028C25.3937 48.2168 25.4105 48.2273 25.4291 48.2336C25.4476 48.2398 25.4674 48.2416 25.4867 48.2388H29.8075C30.0449 48.2388 30.3773 48.3349 30.1873 48.7672L29.5701 49.8719C29.4751 50.064 29.1902 50.1121 28.9054 50.1121H26.9111C26.8162 50.1121 26.7687 50.2081 26.7687 50.3042C26.7687 50.4002 26.8162 50.4963 26.9111 50.4963H28.8579C29.1428 50.4963 29.1902 50.6884 29.0003 50.9286L27.6234 53.5223C27.4809 53.7625 27.291 53.8105 26.8162 53.8105H26.0565C25.9615 53.8105 25.8666 53.8585 25.8666 53.9546C25.8699 54.0045 25.891 54.0514 25.9259 54.0867C25.9608 54.122 26.0072 54.1434 26.0565 54.1467H26.8162C27.1011 54.1467 27.196 54.2908 27.0536 54.579L25.914 56.7405C25.7241 57.0287 25.4867 57.1728 24.727 57.1728H20.4062C20.3869 57.1699 20.3671 57.1717 20.3486 57.178C20.33 57.1842 20.3132 57.1948 20.2993 57.2087C20.2855 57.2227 20.2751 57.2398 20.2689 57.2585C20.2627 57.2773 20.261 57.2973 20.2638 57.3169C20.2638 57.4129 20.3112 57.509 20.4062 57.509H24.727C25.2018 57.509 25.3917 57.7491 25.2018 58.0854L22.9702 62.3122C22.8278 62.5043 22.4954 62.5523 21.8781 62.5523H17.5573C17.4624 62.5523 17.3674 62.6004 17.3674 62.6964C17.3707 62.7463 17.3918 62.7932 17.4267 62.8285C17.4617 62.8639 17.5081 62.8852 17.5573 62.8886H21.8306C22.3529 62.8886 22.6853 62.8886 22.5429 63.1768L21.2609 65.6264C21.0235 66.0107 20.3587 66.0107 20.0738 66.0107H18.6969C18.6775 66.0078 18.6578 66.0096 18.6392 66.0159C18.6207 66.0221 18.6038 66.0327 18.59 66.0466C18.5762 66.0606 18.5658 66.0777 18.5596 66.0964C18.5534 66.1152 18.5517 66.1352 18.5544 66.1547C18.5544 66.2508 18.6019 66.3469 18.6969 66.3469H20.0738C20.5487 66.3469 20.7861 66.4429 20.6911 66.6831L18.9818 69.9493C18.7918 70.2375 18.1271 70.2375 17.6048 70.2375H10.9574C10.9082 70.2408 10.8618 70.2622 10.8268 70.2975C10.7919 70.3328 10.7708 70.3797 10.7675 70.4296C10.7675 70.5257 10.8625 70.5737 10.9574 70.5737H17.6048C18.0796 70.5737 18.6019 70.6698 18.412 71.006L17.3199 73.0714C17.225 73.2635 16.8451 73.2635 16.2753 73.2635H14.9459C14.8966 73.2669 14.8502 73.2882 14.8153 73.3235C14.7803 73.3588 14.7593 73.4058 14.7559 73.4556C14.7559 73.5517 14.8509 73.5997 14.9459 73.5997H16.2753C16.6077 73.5997 17.035 73.6477 16.8926 73.9359L16.1804 75.2328C16.1016 75.4207 15.9691 75.5806 15.7999 75.6918C15.6307 75.8031 15.4325 75.8607 15.2308 75.8572H11.8596C10.6251 75.8572 10.6725 76.7218 11.7646 76.7218H31.4219C31.9916 76.7218 32.0391 76.6257 32.2765 76.1934L35.2204 71.054H50.1295C51.1741 71.054 50.9367 70.2375 50.2719 70.2375Z" fill="#552583"/>
<path d="M88.3519 60.7752C87.8296 61.2555 86.9749 61.7358 86.785 61.5917C86.3768 61.2385 85.9309 60.9324 85.4555 60.6791L88.6843 54.7231C88.7511 54.6224 88.844 54.5422 88.9529 54.4914C89.0618 54.4405 89.1824 54.421 89.3015 54.435C90.5835 54.435 90.9634 55.7799 90.3936 57.509C89.9663 58.7098 89.3015 60.0067 88.3519 60.7752ZM114.277 66.1067C114.182 65.7225 114.039 65.9626 113.802 66.443C113.707 66.6351 113.469 66.6351 113.185 66.6351H112.425C112.383 66.6372 112.342 66.6521 112.308 66.6777C112.274 66.7034 112.249 66.7387 112.235 66.7792C112.233 66.805 112.236 66.8311 112.244 66.8555C112.253 66.88 112.267 66.9022 112.285 66.9205C112.303 66.9389 112.325 66.953 112.349 66.9617C112.374 66.9705 112.399 66.9738 112.425 66.9713H113.185C113.469 66.9713 113.469 67.1634 113.327 67.4516C112.851 68.5126 112.228 69.4993 111.475 70.3816C111.394 70.4628 111.298 70.526 111.192 70.5674C111.085 70.6087 110.972 70.6273 110.858 70.6217L110.051 70.6698C109.956 70.6698 109.861 70.7178 109.861 70.8139C109.864 70.8637 109.885 70.9107 109.92 70.946C109.955 70.9813 110.002 71.0026 110.051 71.006H110.811C111.238 71.006 110.811 71.2462 110.763 71.3422C109.814 72.6549 108.696 73.8341 107.439 74.8486C107.08 74.919 106.712 74.9352 106.347 74.8966H105.54C105.445 74.8966 105.398 74.9927 105.398 75.0887C105.395 75.1083 105.397 75.1283 105.403 75.147C105.409 75.1658 105.419 75.1829 105.433 75.1968C105.447 75.2108 105.464 75.2214 105.482 75.2276C105.501 75.2338 105.521 75.2356 105.54 75.2328L106.347 75.2809C106.917 75.2809 106.49 75.6171 106.395 75.6651C104.258 77.4903 101.029 78.0667 99.605 77.8746C94.8568 77.2982 93.8597 73.6478 93.5274 72.1588C93.3661 71.7376 93.2391 71.3039 93.1475 70.8619C93.0051 70.0934 95.1417 69.9013 95.7115 70.2855C96.6136 70.9099 98.7028 71.5344 100.365 71.5344C101.884 71.5344 104.97 70.4296 105.872 67.7879C106.822 65.05 104.496 62.0721 103.451 61.0153C102.169 59.7185 100.934 57.6051 101.457 56.068C101.837 54.9153 102.501 54.3869 103.878 54.3869C105.73 54.3869 107.012 55.5397 107.012 57.2208C107.012 57.3649 106.965 57.557 106.822 57.557H106.205C106.156 57.5604 106.109 57.5817 106.074 57.6171C106.039 57.6524 106.018 57.6993 106.015 57.7492C106.015 57.8452 106.11 57.8933 106.205 57.8933H106.775C106.815 57.8905 106.856 57.8984 106.893 57.9161C106.93 57.9338 106.962 57.9608 106.986 57.9945C107.01 58.0282 107.025 58.0674 107.029 58.1085C107.034 58.1497 107.028 58.1913 107.012 58.2295C106.917 58.8059 106.87 59.1901 106.727 59.7665C106.68 60.1027 107.154 60.2949 107.297 60.0547L110.146 54.9153C110.383 54.531 109.908 54.435 109.576 54.531C108.769 54.8192 107.534 55.0113 107.06 54.6751C106.066 53.8613 104.824 53.4201 103.546 53.4263C101.029 53.4263 99.2251 54.0507 98.0856 56.1641C97.9906 56.3082 97.7532 56.3082 97.5633 56.3082H97.041C96.946 56.3082 96.8985 56.4043 96.8985 56.5003C96.8985 56.5964 96.946 56.6925 97.041 56.6925L97.4683 56.6444C97.6582 56.6444 97.7532 56.7405 97.6582 56.9326C97.6107 57.1247 97.5158 57.3169 97.4683 57.509C97.1982 58.6273 97.2812 59.8031 97.7057 60.8713C97.7532 60.9193 97.6582 60.9673 97.4683 60.9673H96.7086C96.6593 60.9707 96.6129 60.992 96.578 61.0273C96.5431 61.0627 96.522 61.1096 96.5187 61.1594C96.5187 61.2555 96.6136 61.3035 96.7086 61.3035H97.4683C97.8482 61.3035 97.8956 61.3516 98.0381 61.5437C98.4654 62.1201 98.8927 62.5524 99.3676 63.2248C99.5575 63.4169 98.8453 63.465 98.4654 63.465H95.4266C95.3762 63.465 95.3279 63.4852 95.2923 63.5212C95.2567 63.5573 95.2367 63.6061 95.2367 63.6571C95.2367 63.7081 95.2567 63.7569 95.2923 63.793C95.3279 63.829 95.3762 63.8492 95.4266 63.8492H98.5129C99.0352 63.8492 99.8898 63.8012 99.9848 63.9453C100.745 64.8099 101.647 66.1548 101.789 67.3075C101.837 67.6438 101.694 67.7879 101.314 67.7879H100.887C100.868 67.785 100.848 67.7868 100.829 67.7931C100.811 67.7993 100.794 67.8099 100.78 67.8238C100.766 67.8378 100.756 67.8549 100.75 67.8736C100.743 67.8924 100.742 67.9124 100.745 67.932C100.745 68.028 100.792 68.1241 100.887 68.1241H101.267C101.599 68.1241 101.742 68.1721 101.694 68.4123C101.267 69.7091 100.697 70.6698 98.228 70.6217C95.6165 70.6217 95.0942 68.076 95.8539 65.3863C95.9964 64.8579 95.8539 64.6177 95.6165 65.05L93.8122 67.932C93.7508 67.9958 93.6767 68.0458 93.595 68.0789C93.5132 68.112 93.4255 68.1274 93.3374 68.1241H93.1C93.0497 68.1241 93.0014 68.1443 92.9657 68.1804C92.9301 68.2164 92.9101 68.2653 92.9101 68.3162C92.9101 68.3672 92.9301 68.416 92.9657 68.4521C93.0014 68.4881 93.0497 68.5083 93.1 68.5083C93.29 68.5083 93.3849 68.6044 93.2899 68.7485L92.6252 69.7572C91.6036 67.3733 90.313 65.1168 88.7792 63.0327V62.9847C91.2008 62.8406 94.7144 60.5831 95.2842 58.5657C96.2813 55.0113 92.9101 53.7145 91.0583 53.7145H82.9865C81.8944 53.7145 81.847 54.5791 82.8441 54.5791C83.4139 54.5791 83.8887 55.0594 83.6513 55.5397L81.847 58.8059C81.7045 59.0941 81.1822 59.0941 80.4225 59.0941H79.6628C79.5679 59.0941 79.4729 59.1421 79.4729 59.2382C79.4762 59.288 79.4973 59.3349 79.5322 59.3703C79.5672 59.4056 79.6136 59.4269 79.6628 59.4303H80.4225C80.9448 59.4303 81.5146 59.4303 81.3247 59.8145L79.188 63.7051C79.0931 63.8973 78.8082 63.8973 78.0959 63.8973H77.3363C77.287 63.9006 77.2406 63.922 77.2057 63.9573C77.1707 63.9926 77.1497 64.0395 77.1463 64.0894C77.1463 64.1855 77.2413 64.2335 77.3363 64.2335H78.0959C78.6657 64.2335 78.8556 64.3296 78.7132 64.6177L75.8643 69.8052C75.532 70.1895 75.1521 70.2375 74.4399 70.2375C73.3953 70.2375 73.4428 71.054 74.4874 71.054H81.4196C82.5117 71.054 82.2268 70.2375 81.6096 70.2375C81.2297 70.2375 80.8499 69.517 81.0873 69.1328L84.6009 62.3122H84.9807C86.5476 62.3122 86.9275 64.954 87.2123 67.7879C87.2598 67.98 86.88 68.028 86.0728 68.028H84.1261C84.0311 68.028 83.9361 68.076 83.9361 68.1721C83.9395 68.222 83.9606 68.2689 83.9955 68.3042C84.0304 68.3395 84.0768 68.3609 84.1261 68.3642H86.0728C86.5951 68.3642 87.3073 68.3642 87.3073 68.5564C87.3985 69.6699 87.557 70.7767 87.7821 71.8706C87.8771 72.2068 87.3073 72.1588 86.7375 72.1588H84.221C84.1718 72.1621 84.1254 72.1835 84.0904 72.2188C84.0555 72.2541 84.0344 72.3011 84.0311 72.3509C84.0311 72.447 84.1261 72.495 84.221 72.495H86.7375C87.4972 72.495 87.9246 72.495 87.9721 72.6871C89.0166 76.6738 93.6698 79.8439 98.133 79.6518C102.027 79.5077 105.255 77.3943 106.917 76.0013C109.149 74.2242 112.425 70.4296 113.754 67.6918C113.992 67.2115 114.372 66.539 114.277 66.1067Z" fill="#552583"/>
<path d="M49.3223 48.479C49.0218 48.839 48.6416 49.1223 48.2127 49.3059C47.7837 49.4895 47.318 49.5682 46.8533 49.5357H46.5684L48.2777 46.1254C48.3222 46.0372 48.3903 45.9634 48.4743 45.9124C48.5582 45.8615 48.6546 45.8354 48.7525 45.8372C48.9899 45.8372 48.9424 45.4049 48.6576 45.4049H45.9986C45.7612 45.4049 45.6662 45.8372 45.9036 45.8372C46.1411 45.8372 46.1411 46.0774 46.0461 46.3175L44.5267 49.3435C44.4022 49.4788 44.2336 49.5641 44.0519 49.5837C43.8145 49.6798 43.672 50.064 43.9569 50.064H48.2302C48.5626 50.064 48.6576 49.968 48.705 49.8239L49.6072 48.479C49.7021 48.3349 49.4647 48.2868 49.3223 48.479Z" fill="#552583"/>
<path d="M62.2372 45.501C62.1536 45.5598 62.0542 45.5914 61.9523 45.5914C61.8505 45.5914 61.751 45.5598 61.6674 45.501C61.2648 45.2081 60.786 45.0411 60.2905 45.0207C59.2934 45.0207 58.5811 45.2128 58.1063 46.1734C57.774 46.99 58.1538 47.7105 59.0085 48.0947C59.4358 48.2868 59.9106 48.527 59.7207 49.0073C59.5782 49.3435 59.1984 49.3916 58.8186 49.3916C58.3437 49.3435 57.6315 49.0073 57.5366 48.3349C57.4891 48.0947 57.2517 48.1427 57.1567 48.2868L56.5394 49.4876C56.4445 49.6798 56.6819 49.8239 56.8243 49.7278C56.9326 49.6141 57.0741 49.5386 57.2281 49.5127C57.382 49.4867 57.5401 49.5116 57.679 49.5837C58.1432 49.9098 58.6831 50.1084 59.2459 50.1601C59.6872 50.1981 60.1302 50.1103 60.5246 49.9065C60.9191 49.7027 61.2492 49.3912 61.4775 49.0073C61.9998 48.1908 61.6674 47.3742 60.7653 46.9419C60.243 46.7018 59.8157 46.2695 60.0531 45.8372C60.1955 45.549 60.6228 45.5971 60.8602 45.6451C61.083 45.6797 61.2927 45.7735 61.4679 45.917C61.6431 46.0605 61.7775 46.2484 61.8574 46.4616C61.8673 46.496 61.8868 46.5268 61.9136 46.5502C61.9403 46.5737 61.9732 46.5889 62.0082 46.5939C62.0433 46.599 62.0791 46.5937 62.1112 46.5788C62.1434 46.5639 62.1707 46.5399 62.1897 46.5097L62.4746 45.7411C62.5696 45.5971 62.3322 45.453 62.2372 45.501Z" fill="#552583"/>
<path d="M92.0079 46.7498L92.3878 46.0293C92.5777 45.7411 92.2928 45.4049 91.8655 45.4049H86.8325C86.5001 45.4049 86.5951 45.7892 86.7375 45.7892C87.0699 45.7892 87.1649 46.1734 86.9749 46.5097L85.4555 49.2955C85.2181 49.5837 85.0757 49.6798 84.7908 49.6798C84.5059 49.6798 84.4109 50.064 84.7908 50.064H89.8713C90.0612 50.064 90.1562 50.016 90.2037 49.8719L90.9159 48.9593C91.1058 48.7672 90.7259 48.7672 90.631 48.8632C90.294 49.1764 89.8961 49.415 89.4628 49.5639C89.0295 49.7128 88.5703 49.7686 88.1145 49.7278H87.5447L88.2094 48.1427H88.3519C88.8267 48.1427 89.349 48.1427 89.444 48.479C89.467 48.5073 89.496 48.5301 89.5289 48.5458C89.5617 48.5615 89.5976 48.5696 89.6339 48.5696C89.6702 48.5696 89.706 48.5615 89.7389 48.5458C89.7717 48.5301 89.8007 48.5073 89.8238 48.479L90.3936 47.2782C90.4885 47.086 90.2511 47.086 90.1562 47.1821C89.9188 47.6144 88.8742 47.5183 88.6368 47.5183H88.4943L89.349 45.7892H90.2986C90.5793 45.7888 90.8532 45.8763 91.0828 46.0397C91.3123 46.2031 91.4862 46.4344 91.5806 46.7018C91.6281 46.7978 91.9605 46.8939 92.0079 46.7498Z" fill="#552583"/>
<path d="M67.2702 47.6144L68.932 46.2695V47.6144H67.2702ZM79.188 45.4049H77.4312C77.0513 45.4049 77.1463 45.7892 77.3362 45.7892C77.4351 45.7912 77.5318 45.8195 77.6165 45.8711C77.7013 45.9228 77.7712 45.996 77.8192 46.0835C77.8672 46.1709 77.8918 46.2696 77.8903 46.3697C77.8889 46.4698 77.8616 46.5677 77.811 46.6538L77.0988 47.9987L75.4845 45.5971C75.3162 45.4409 75.0956 45.3551 74.8672 45.3569H73.1104C72.778 45.3569 72.8255 45.7411 73.0154 45.7411C73.3478 45.7411 73.2528 46.0293 73.1579 46.2215L71.7809 48.9593C71.7538 49.0155 71.7106 49.0621 71.6569 49.0931C71.6031 49.124 71.5414 49.1378 71.4798 49.1326C71.4182 49.1274 71.3596 49.1035 71.3116 49.064C71.2637 49.0245 71.2287 48.9712 71.2112 48.9113L70.1191 45.3569C70.0716 45.2128 69.4543 45.2128 69.2644 45.3569L66.558 47.6144H65.181C64.8961 47.6144 64.7537 47.7585 64.7537 47.9026C64.7537 48.0467 64.8961 48.1908 65.181 48.1908H65.8932L65.181 48.8152C64.7537 49.1034 64.3264 49.5357 64.089 49.5357H63.899C63.6141 49.5357 63.4717 49.5837 63.4717 49.7758C63.4717 50.016 63.6141 50.064 63.8516 50.064H66.0357C66.463 50.064 66.3681 49.5357 66.1781 49.5357C66.095 49.5369 66.0135 49.5126 65.9443 49.466C65.8752 49.4194 65.8216 49.3526 65.7907 49.2745C65.7599 49.1965 65.7532 49.1108 65.7715 49.0288C65.7897 48.9467 65.8322 48.8723 65.8932 48.8152L66.558 48.1908H67.8875C68.6472 48.1908 69.2169 49.1034 68.7421 49.3916L68.3623 49.5837C68.2198 49.6798 68.1249 50.064 68.3623 50.064H72.6356C72.9679 50.064 72.9205 49.6317 72.778 49.6317C72.3032 49.6317 72.5406 49.0073 72.6356 48.8632L73.7277 46.7018L75.2945 49.7758C75.437 49.968 75.532 50.064 75.6744 50.064H76.2916C76.3662 50.0702 76.4405 50.0495 76.5013 50.0055C76.5622 49.9616 76.6056 49.8972 76.624 49.8239L78.4283 46.5097C78.7132 45.9333 78.9506 45.7892 79.3304 45.7892C79.4729 45.7892 79.5678 45.4049 79.188 45.4049Z" fill="#552583"/>
<path d="M54.3078 48.0947C53.833 49.0554 53.0258 49.6318 52.551 49.3916C52.0287 49.1514 51.9812 48.1428 52.5035 47.1821C52.9783 46.2215 53.738 45.6451 54.2603 45.8853C54.7826 46.1734 54.7826 47.1341 54.3078 48.0947ZM53.8805 45.1648C52.4086 45.1648 50.8417 45.9333 50.5568 47.5183C50.4807 47.8654 50.484 48.2256 50.5667 48.5711C50.6493 48.9167 50.809 49.2386 51.0336 49.5121C51.2581 49.7856 51.5415 50.0035 51.8622 50.1491C52.1828 50.2947 52.5321 50.3642 52.8834 50.3522C54.4977 50.3522 55.9697 49.2955 56.2545 47.7585C56.5394 46.2215 55.4474 45.1648 53.8805 45.1648Z" fill="#552583"/>
<path d="M84.2685 47.5183H82.3692C81.9894 47.5183 82.0844 47.9026 82.2268 47.9026C82.2717 47.8973 82.3172 47.9024 82.3599 47.9175C82.4026 47.9325 82.4413 47.9571 82.4733 47.9894C82.5053 48.0218 82.5296 48.061 82.5445 48.1042C82.5593 48.1474 82.5643 48.1934 82.5592 48.2388C82.5592 49.0073 82.2268 49.2955 81.5146 49.2955C80.8024 49.2955 80.5175 48.4309 81.0398 47.3262C81.2279 46.9123 81.5289 46.5614 81.9074 46.3146C82.2859 46.0679 82.7261 45.9356 83.1764 45.9333C83.7937 45.9333 84.316 46.0774 84.3634 46.6537C84.4109 46.7978 84.6009 46.7978 84.6958 46.6537L85.1231 45.8372C85.1706 45.7411 85.1231 45.6451 84.9807 45.6451C84.8383 45.597 84.6009 45.7892 84.4109 45.6451C83.855 45.2904 83.216 45.0915 82.5592 45.0687C81.8552 45.0239 81.1535 45.186 80.5385 45.5354C79.9236 45.8848 79.4216 46.4066 79.093 47.038C78.1909 48.575 79.4729 50.2081 80.6599 50.2081C81.3246 50.2081 82.1318 49.7278 82.5592 49.5357L83.034 49.8719C83.1324 49.9817 83.2679 50.0503 83.4138 50.064H83.6038C83.7937 50.064 83.8412 49.8239 83.8886 49.6798L84.6483 47.8545C84.7433 47.6624 84.6958 47.5183 84.2685 47.5183Z" fill="#552583"/>
<path d="M110.716 45.501C110.632 45.5598 110.533 45.5914 110.431 45.5914C110.329 45.5914 110.229 45.5598 110.146 45.501C109.743 45.2081 109.264 45.0411 108.769 45.0207C107.772 45.0207 107.06 45.2128 106.585 46.1734C106.252 46.99 106.632 47.7105 107.534 48.0947C107.914 48.2868 108.389 48.527 108.199 49.0073C108.057 49.3435 107.677 49.3916 107.297 49.3916C106.822 49.3435 106.11 49.0073 106.015 48.3349C105.967 48.0947 105.73 48.1427 105.635 48.2868L105.018 49.4876C104.923 49.6798 105.16 49.8239 105.303 49.7278C105.411 49.6141 105.553 49.5386 105.706 49.5127C105.86 49.4867 106.019 49.5116 106.157 49.5837C106.622 49.9098 107.161 50.1084 107.724 50.1601C108.721 50.1601 109.434 49.8719 109.956 49.0073C110.478 48.1908 110.193 47.3742 109.244 46.9419C108.721 46.7018 108.342 46.2695 108.531 45.8372C108.674 45.549 109.101 45.5971 109.339 45.6451C109.561 45.6797 109.771 45.7735 109.946 45.917C110.121 46.0605 110.256 46.2484 110.336 46.4616C110.346 46.496 110.365 46.5268 110.392 46.5502C110.419 46.5737 110.452 46.5889 110.487 46.5939C110.522 46.599 110.557 46.5937 110.59 46.5788C110.622 46.5639 110.649 46.5399 110.668 46.5097L110.953 45.7411C111.048 45.5971 110.811 45.453 110.716 45.501Z" fill="#552583"/>
<path d="M97.3258 48.479C96.6611 49.2955 95.8064 49.5357 94.8093 49.5357H94.5719L96.2813 46.1254C96.3156 46.0295 96.3816 45.9485 96.4681 45.896C96.5545 45.8435 96.6562 45.8227 96.7561 45.8372C96.946 45.8372 96.946 45.4049 96.6611 45.4049H93.9547C93.7173 45.4049 93.6698 45.8372 93.8597 45.8372C94.0971 45.8372 94.1446 46.0774 94.0496 46.3175L92.4827 49.3435C92.3774 49.4777 92.2237 49.5641 92.0554 49.5837C91.818 49.6798 91.6756 50.064 91.913 50.064H96.1863C96.5187 50.064 96.6136 49.968 96.7086 49.8239L97.5632 48.479C97.7057 48.3349 97.4208 48.2868 97.3258 48.479Z" fill="#552583"/>
<path d="M103.783 45.7892C104.061 45.8026 104.328 45.8956 104.555 46.0572C104.782 46.2187 104.959 46.4423 105.065 46.7018C105.113 46.7978 105.398 46.8939 105.493 46.7498L105.873 46.0293C106.015 45.7411 105.778 45.4049 105.35 45.4049H100.317C99.9374 45.4049 100.08 45.7892 100.222 45.7892C100.555 45.7892 100.65 46.1734 100.412 46.5097L98.9402 49.2955C98.8668 49.4186 98.7619 49.5193 98.6365 49.5869C98.5111 49.6546 98.37 49.6866 98.228 49.6798C97.9906 49.6798 97.8957 50.064 98.228 50.064H103.309C103.546 50.064 103.641 50.016 103.688 49.8719L104.401 48.9593C104.543 48.7672 104.211 48.7672 104.068 48.8632C103.742 49.178 103.353 49.4181 102.927 49.5673C102.501 49.7165 102.048 49.7712 101.599 49.7278H100.982L101.694 48.1427H101.837C102.264 48.1427 102.786 48.1427 102.929 48.479C102.947 48.5069 102.971 48.5298 103 48.5457C103.029 48.5615 103.062 48.5698 103.095 48.5698C103.128 48.5698 103.16 48.5615 103.189 48.5457C103.218 48.5298 103.243 48.5069 103.261 48.479L103.878 47.2782C103.973 47.086 103.688 47.086 103.641 47.1821C103.403 47.6144 102.359 47.5183 102.074 47.5183H101.932L102.834 45.7892H103.783Z" fill="#552583"/>
<path d="M65.0386 33.6851C62.6645 33.541 60.7178 33.445 59.056 33.6371C59.5228 32.4734 60.2943 31.4605 61.2876 30.7071C62.8191 30.7835 64.3428 30.9761 65.8458 31.2835C70.0716 32.1001 76.624 34.7418 79.4729 38.5364C75.6744 35.9907 69.4544 34.0214 65.0386 33.6851ZM57.9639 33.7812C56.2994 33.9724 54.6496 34.2773 53.0258 34.6938C52.7884 34.0694 52.1712 32.1481 51.9338 31.5237C54.5427 30.7895 57.2569 30.5133 59.9581 30.7071C59.2934 31.2355 58.2013 33.2048 57.9639 33.7812ZM46.0461 37.3356C45.7612 36.8552 44.3842 35.5584 43.6245 35.3182C45.3814 33.9733 49.4173 32.1001 50.9841 31.7638C51.2216 32.2442 51.9338 34.1654 52.1712 34.934C50.7942 35.2222 47.1856 36.567 46.0461 37.3356ZM84.0311 41.7065C83.6513 41.2262 83.129 40.2655 79.3305 36.9033C73.6802 31.956 66.2256 29.6985 59.2459 29.6985C54.1179 29.6985 49.6072 30.8512 44.5742 33.6371C38.2117 37.1915 35.6002 41.2742 34.9355 42.0907C34.4607 42.7151 34.4132 43.0514 34.6981 43.2435C34.9355 43.3876 35.3628 42.9073 35.7427 42.3789C37.6419 39.8332 40.1584 37.3356 42.7699 35.8466C43.5771 35.9907 44.7166 37.1434 45.1439 37.7198C43.2413 38.9172 41.4028 40.2159 39.6361 41.6104C38.734 42.3309 38.4491 42.7151 38.6865 43.0033C38.8764 43.2435 39.5886 42.8112 40.1584 42.3309C41.889 40.939 43.7135 39.671 45.6188 38.5364C46.6633 39.7372 46.331 41.9466 45.9511 42.3789C45.7612 42.6671 45.7612 42.9073 45.9511 43.0514C46.1885 43.1955 46.3785 42.8592 46.6633 42.427C47.3756 41.4183 47.0907 39.0167 46.5209 38.1521C48.3252 36.9993 50.8892 36.2308 52.4561 35.8946C52.5985 36.1348 54.4978 41.7545 54.8776 42.7632C55.0675 43.3396 55.2575 44.012 55.6848 43.8679C55.9222 43.8199 55.7798 43.1955 55.5423 42.5711C55.2575 41.8025 53.833 37.0954 53.3582 35.7025C53.8805 35.4143 57.0143 34.7899 57.8214 34.7899C57.4416 36.8552 58.866 37.7198 60.4804 38.7765C61.3351 39.3529 66.8429 42.523 67.9824 43.2435C68.6472 43.6758 69.1695 43.9159 69.3119 43.7238C69.4544 43.5317 69.027 43.0514 68.4098 42.7151C67.935 42.427 62.807 39.4009 60.6703 38.056C59.1509 37.0474 58.3437 36.0387 58.6761 34.6458C59.1984 34.5017 60.7178 34.5017 62.3322 34.5017C73.2529 34.5977 81.9894 40.8899 82.939 41.9466C83.4613 42.427 84.1261 42.8592 84.411 42.6671C84.5534 42.523 84.2685 41.9466 84.0311 41.7065Z" fill="black"/>
<path d="M86.4052 79.4116C86.8325 78.6911 87.1174 78.2588 86.785 78.0667C86.5001 77.8746 86.1678 78.595 85.7879 79.2675C84.5059 81.477 83.129 83.3502 79.9952 86.2321C77.388 88.5985 74.3801 90.4697 71.1162 91.7558C69.9292 88.3936 65.4185 74.08 65.276 73.6477C65.1336 73.0233 64.9436 72.8792 64.7537 72.9273C64.5163 73.0233 64.6587 73.3596 64.8012 73.8879C64.8962 74.4163 70.2615 91.4196 70.4515 91.996C69.4069 92.5243 65.0386 93.7732 62.0473 93.8692C59.3409 93.9653 56.1596 93.8692 54.5452 93.485C52.6935 91.9479 48.4202 85.8479 46.8058 82.6297C44.9065 78.7872 43.6246 75.2808 43.2922 73.7918C43.1497 73.0714 42.9598 72.543 42.58 72.6391C42.2001 72.6871 42.4375 73.2635 42.6749 74.032C43.5483 77.0524 44.7091 79.98 46.1411 82.7738C48.2777 86.9526 52.0287 91.8999 53.1208 93.2448C48.9285 92.3203 44.979 90.5028 41.5354 87.9133C38.1167 85.3195 35.1729 82.0533 33.701 79.6517C33.4636 79.2195 33.1787 78.6431 32.7988 78.8832C32.6089 79.0273 32.8463 79.4596 33.0837 79.9399C35.2204 83.8305 40.4433 89.3542 47.1856 92.3802C54.9726 95.8866 63.4717 95.6944 71.1162 92.7165C77.7636 90.1227 83.5563 84.7431 86.4052 79.4116Z" fill="black"/>
</svg>
