<svg width="124" height="72" viewBox="0 0 124 72" fill="none" xmlns="http://www.w3.org/2000/svg">
<g clip-path="url(#clip0_285507_780)">
<path fill-rule="evenodd" clip-rule="evenodd" d="M43.7618 62.4346H36.598V1.56108H47.6838L55.1 51.7765C53.9922 39.8418 52.5424 20.572 52.5424 10.4272V1.56108H59.7041V62.4346H49.5571L42.7354 13.6648C43.3341 24.5774 43.7597 37.622 43.7597 44.9548V62.4325M63.7971 62.4346V1.56108H73.942C80.6782 1.56108 84.8546 5.22641 84.8546 13.7525V22.7041C84.8546 28.247 83.1481 31.0591 80.7615 32.509C83.1481 34.0444 84.8546 36.7709 84.8546 41.4606V50.3267C84.8546 58.6816 80.4215 62.4346 73.942 62.4346H63.7971ZM71.981 9.23389V29.3547H73.0032C75.903 29.3547 76.6707 28.247 76.6707 24.9217V13.3269C76.6707 10.5127 75.8174 9.23389 73.3454 9.23389H71.981ZM71.981 36.0053V54.7597H73.3454C75.903 54.7597 76.6707 53.312 76.6707 50.4122V40.0962C76.6707 37.1131 75.7297 36.0053 73.0032 36.0053H71.981ZM100.192 51.0088H95.0764L94.3921 62.4346H86.1248L92.0911 1.56108H103.686L109.485 62.4346H100.874L100.192 51.0088ZM95.4165 44.1037H99.7661L99.0818 32.9345C98.8273 28.5015 98.1451 14.4346 97.634 6.84523H97.2919L96.0986 32.9345L95.4165 44.1037ZM22.4092 0H7.42501C5.66831 0.00113299 3.98388 0.699482 2.74171 1.94166C1.49953 3.18384 0.801182 4.86826 0.800049 6.62497V57.3665C0.800613 59.1241 1.49851 60.8098 2.74056 62.0534C3.98262 63.2971 5.66735 63.9972 7.42501 64H22.3986C24.1578 63.9977 25.8444 63.2983 27.0889 62.055C28.3335 60.8116 29.0345 59.1257 29.0385 57.3665V6.62497C29.0357 4.86804 28.3362 3.18395 27.0934 1.94202C25.8507 0.70009 24.1662 0.00169633 22.4092 0Z" fill="#FFFFFE"/>
<path fill-rule="evenodd" clip-rule="evenodd" d="M18.6926 11.7316L18.7076 11.9497C19.1652 12.2149 19.3961 12.433 19.8581 12.7281C21.0791 13.498 22.5846 14.8666 22.3943 19.5777C22.7364 20.6041 22.8883 22.6228 23.2069 23.2708C23.842 24.5325 24.2676 25.3537 24.4536 26.5448C24.4536 26.5448 24.6354 28.3988 24.8749 28.5336C26.1387 28.8201 25.7731 28.9441 25.9591 29.1601C26.1558 29.4146 26.885 29.4018 26.885 30.0818C27.1374 30.4197 27.3256 30.7725 27.4667 31.1382V6.62497C27.4656 5.2834 26.9326 3.99701 25.9846 3.04777C25.0365 2.09854 23.7508 1.56391 22.4092 1.56108H17.5678C18.3462 1.83908 18.7867 2.16413 19.0412 2.68164C19.6656 2.7351 20.4098 4.13579 19.2507 6.20797C19.764 6.55012 19.3641 7.05907 18.9963 7.65143C18.8893 7.84175 18.7717 8.17963 18.4274 8.15611C17.989 9.08206 17.4566 9.97808 17.0567 10.0337C16.9348 10.1834 16.8471 10.5811 17.0289 10.7693C17.6191 11.0323 18.3376 11.3959 18.6926 11.7316ZM27.4667 34.4592C27.1322 35.3 26.5527 36.0208 25.8033 36.5279C25.054 37.0351 24.1695 37.3053 23.2646 37.3034C22.6719 37.3037 22.0849 37.1872 21.5372 36.9605C20.9896 36.7339 20.4919 36.4016 20.0727 35.9826C19.6534 35.5635 19.3209 35.066 19.094 34.5185C18.8671 33.9709 18.7503 33.384 18.7503 32.7912C18.7503 30.6635 20.213 28.8778 22.1997 28.401C21.68 27.0965 20.5809 24.9858 20.2537 24.2951C19.9457 23.6065 19.2015 19.3125 19.0412 18.4635C19.0048 18.2775 17.093 19.5734 17.0887 19.6525C16.9775 19.7594 15.656 23.2152 15.6004 23.4012C15.5726 23.5188 15.5704 23.9786 15.5704 23.9786C15.5704 23.9786 16.2205 24.0599 16.5948 25.1954C16.9647 26.3288 18.0917 30.4624 18.0917 30.4624C18.0917 30.4624 17.788 30.7789 17.7752 30.7618C19.2015 35.5349 18.7033 37.59 19.3427 38.9906C20.1467 40.9623 20.3649 40.7036 21.0535 42.363C21.5496 43.5712 22.1013 48.325 22.2852 48.5346C23.0551 49.5119 23.4699 50.2732 23.4699 50.8228C23.4699 51.3788 22.8177 53.0147 23.0551 53.9685C23.2005 54.5309 23.2753 55.7862 23.5362 56.0257C23.5362 56.0257 23.7757 56.4983 23.6581 56.71C23.6239 56.7805 23.5555 56.8896 23.5875 56.9773C24.011 58.4742 25.3838 61.0318 23.162 62.3705H23.209C24.4006 62.185 25.4859 61.5777 26.2673 60.6593C27.0488 59.7409 27.4744 58.5724 27.4667 57.3665V34.4592Z" fill="#B52532"/>
<path fill-rule="evenodd" clip-rule="evenodd" d="M21.7656 56.3935C20.9529 55.6664 21.4961 55.3606 21.4619 55.074C20.9273 52.8565 19.1652 51.5156 20.0762 50.7843C19.8516 50.0529 19.394 49.1334 19.4111 49.1355C16.6675 47.5595 14.3301 44.9997 13.9345 44.6234C13.4534 44.1016 12.6322 43.5755 12.4803 43.1521C11.8196 42.5469 8.5862 37.9599 7.83346 36.2705L6.52044 36.0845C5.92167 33.6466 3.92862 31.6001 3.87944 29.1558C3.86233 28.2299 4.29858 26.2497 4.4611 25.8562C4.62149 25.4542 5.38492 24.7976 5.38492 24.7976V24.1433C2.52151 24.2245 3.34482 23.9316 2.85298 22.8174C2.50654 22.0476 2.75461 21.8765 2.87864 21.3419C3.26356 19.7658 4.54023 17.3323 5.06629 16.2267C5.22881 15.6685 5.78054 14.3234 5.78054 14.3234C7.91472 9.97808 8.71237 10.2967 11.2465 10.0508L11.3705 9.87116C13.911 9.75996 13.494 9.56963 13.8511 7.12323C13.4833 7.28148 13.3721 6.35552 13.3721 6.35552C13.1711 4.96552 13.757 5.22855 14.035 5.20075C14.097 2.91259 14.3301 2.18979 15.981 1.55894H7.42715C6.76151 1.55894 6.1024 1.69012 5.48748 1.94498C4.87256 2.19984 4.3139 2.57338 3.84342 3.04426C3.37294 3.51513 2.99987 4.07411 2.74553 4.68925C2.49119 5.30438 2.36057 5.9636 2.36113 6.62924V57.3686C2.36113 60.1679 4.6279 62.4368 7.42929 62.4368H22.4092C20.6942 61.5087 21.7078 59.7423 21.7656 56.3935Z" fill="#253B73"/>
</g>
<defs>
<clipPath id="clip0_285507_780">
<rect width="122.4" height="72" fill="white" transform="translate(0.800049)"/>
</clipPath>
</defs>
</svg>
